<?xml version="1.0" encoding="UTF-8"?>
<svg xmlns="http://www.w3.org/2000/svg" viewBox="0 0 1000 160" width="1000" height="160">
<path d="M0.09 0.09C333.36 0.09 666.64 0.09 999.91 0.09C999.91 53.33 999.91 106.58 999.91 159.82C666.64 159.82 333.36 159.82 0.09 159.82C0.09 106.58 0.09 53.33 0.09 0.09ZM285.69 112.02C283.99 105.94 285.33 97.79 285.33 91.46C285.33 77.1 285.33 62.74 285.33 48.38C285.33 40.43 287.48 29.45 281.57 23.11C276.88 18.06 270.07 18.87 263.78 18.87C250.76 18.87 237.74 18.87 224.72 18.87C174.94 18.87 125.17 18.87 75.39 18.87C63.71 18.87 52.03 18.87 40.34 18.87C34.24 18.87 27.83 18.24 23.29 23.11C18.83 27.89 19.48 34.26 19.48 40.34C19.48 51.78 19.48 63.22 19.48 74.66C19.48 88.66 19.48 102.65 19.48 116.65C19.48 122.79 18.27 130.41 22.27 135.61C28.77 144.06 43.06 141.04 52.39 141.04C75.51 141.04 98.64 141.04 121.76 141.04C128.33 141.04 134.9 141.04 141.47 141.04C144.22 141.04 148.08 141.73 150.6 140.64C151.53 135.24 150.78 129.08 150.78 123.59C150.78 111.42 150.78 99.25 150.78 87.08C150.78 82.49 152.7 72.66 148.9 69.26C145.74 66.43 133.53 67.79 129.06 67.79C115.67 67.79 102.29 67.79 88.9 67.79C82.87 67.79 75.35 66.6 69.53 68.09C69.53 76.76 69.53 85.44 69.53 94.11C85.74 94.11 101.96 94.11 118.17 94.11C118.17 98.98 118.17 103.86 118.17 108.73C96.1 108.73 74.04 108.73 51.97 108.73C51.97 89.55 51.97 70.36 51.97 51.18C118.97 51.18 185.96 51.18 252.96 51.18C252.96 81.14 252.96 111.09 252.96 141.04C371.21 141.04 489.45 141.04 607.7 141.04C607.7 116.72 607.7 92.41 607.7 68.09C606.05 67.85 604.4 67.62 602.75 67.38C602.75 61.98 602.75 56.58 602.75 51.18C637.8 51.18 672.85 51.18 707.9 51.18C707.9 81.13 707.9 111.09 707.9 141.04C730.67 141.04 753.43 141.04 776.2 141.04C776.2 114.97 776.2 88.91 776.2 62.85C778.44 63.66 779.76 66.75 781.11 68.66C784.19 73.02 787.18 77.42 790.28 81.76C800.23 95.68 810.09 109.7 819.79 123.8C821.91 126.88 829.34 139.23 831.74 140.7C834.05 142.13 839.76 141.04 842.46 141.04C851.83 141.04 861.2 141.04 870.57 141.04C876.67 141.04 892.86 142.5 897.75 140.6C897.75 125.19 897.75 109.79 897.75 94.38C900.57 93.82 912.61 93.25 914.95 94.37C916.97 95.34 920.84 102.4 922.33 104.51C928.18 112.78 933.99 121.08 939.81 129.37C941.64 131.98 945.43 139.16 947.86 140.68C949.77 141.88 954.14 141.04 956.37 141.04C963.44 141.04 973.85 142.4 980.5 140.74C980.5 131.25 980.5 121.76 980.5 112.27C975.18 111.2 968.52 113.64 963.41 111.93C961.3 111.23 959.06 106.23 957.81 104.44C952.83 97.37 946.24 90.13 942.51 82.33C946.05 74.46 954.62 64.76 959.74 57.41C961.08 55.5 964.67 48.97 966.46 48.06C969.29 46.63 976.92 48.36 980.5 47.65C980.5 38.15 980.5 28.66 980.5 19.17C974 17.55 965.64 18.87 958.93 18.87C956.92 18.87 952.82 18.1 951.12 19.22C948.14 21.19 945.79 26.78 943.71 29.68C937.14 38.84 930.75 48.12 924.26 57.33C922.81 59.39 918.68 66.81 916.7 67.66C914.71 68.5 899.75 68.2 897.75 67.36C897.75 51.34 897.75 35.33 897.75 19.31C894.95 18.22 891.09 18.87 888.1 18.87C879.9 18.87 869.47 18.08 866.14 27.66C863.6 34.99 865.19 44.71 865.19 52.39C865.19 65.53 865.19 78.68 865.19 91.82C865.19 98.3 865.78 105.11 865.1 111.55C861.98 113.36 854.88 112.03 851.22 112.03C849.88 112.03 847.76 112.46 846.69 111.51C842.39 107.72 835.5 95.55 831.77 90.28C819.87 73.44 808.19 56.45 796.24 39.65C792.54 34.45 788.93 29.2 785.27 23.98C784.31 22.61 782.84 19.3 781.12 18.92C777.26 18.06 772.31 18.87 768.35 18.87C761.64 18.87 753.77 17.55 748.36 22.37C741.64 28.37 743.87 39.61 743.87 47.65C743.87 62.25 743.87 76.85 743.87 91.46C743.87 97.66 745.32 106.04 743.52 111.94C742.55 111.94 741.57 111.94 740.6 111.94C738.77 106.07 740.23 97.64 740.23 91.46C740.23 76.85 740.23 62.25 740.23 47.65C740.23 39.64 742.47 28.34 735.75 22.37C730.94 18.11 724.69 18.87 718.69 18.87C707.37 18.87 696.06 18.87 684.74 18.87C638.13 18.87 591.52 18.87 544.91 18.87C532.49 18.87 520.08 18.87 507.67 18.87C501.46 18.87 494.92 18.2 490.31 23.18C484.42 29.54 486.62 40.78 486.62 48.74C486.62 62.74 486.62 76.73 486.62 90.73C486.62 97.75 487.17 105.03 486.49 112.02C419.56 112.02 352.62 112.02 285.69 112.02ZM325.78 18.89C314.93 18.89 304.08 18.89 293.23 18.89C293.23 46.52 293.23 74.15 293.23 101.78C304.08 101.78 314.93 101.78 325.78 101.78C325.78 74.15 325.78 46.52 325.78 18.89ZM576.04 51.19C576.04 56.72 576.04 62.25 576.04 67.79C557.04 67.79 538.04 67.79 519.04 67.79C519.04 62.25 519.04 56.72 519.04 51.19C538.04 51.19 557.04 51.19 576.04 51.19ZM249.01 67.79C218.09 67.79 187.16 67.79 156.23 67.79C156.23 92.2 156.23 116.61 156.23 141.02C167.08 141.02 177.94 141.02 188.79 141.02C188.79 125.39 188.79 109.75 188.79 94.12C208.87 94.12 228.94 94.12 249.01 94.12C249.01 85.34 249.01 76.57 249.01 67.79ZM703.96 67.79C673.16 67.79 642.36 67.79 611.56 67.79C611.56 92.21 611.56 116.62 611.56 141.03C622.41 141.03 633.26 141.03 644.12 141.03C644.12 125.39 644.12 109.75 644.12 94.12C664.06 94.12 684.01 94.12 703.96 94.12C703.96 85.34 703.96 76.57 703.96 67.79ZM575.13 94.12C575.13 100.09 575.13 106.06 575.13 112.02C556.43 112.02 537.73 112.02 519.03 112.02C519.03 106.06 519.03 100.09 519.03 94.12C537.73 94.12 556.43 94.12 575.13 94.12Z" fill="#016601" fill-rule="evenodd" stroke="#016601" stroke-width="0.25" stroke-linejoin="round"/>
<path d="M285.69 112.02C352.62 112.02 419.56 112.02 486.49 112.02C487.17 105.03 486.62 97.75 486.62 90.73C486.62 76.73 486.62 62.74 486.62 48.74C486.62 40.78 484.42 29.54 490.31 23.18C494.92 18.2 501.46 18.87 507.67 18.87C520.08 18.87 532.49 18.87 544.91 18.87C591.52 18.87 638.13 18.87 684.74 18.87C696.06 18.87 707.37 18.87 718.69 18.87C724.69 18.87 730.94 18.11 735.75 22.37C742.47 28.34 740.23 39.64 740.23 47.65C740.23 62.25 740.23 76.85 740.23 91.46C740.23 97.64 738.77 106.07 740.6 111.94C741.57 111.94 742.55 111.94 743.52 111.94C745.32 106.04 743.87 97.66 743.87 91.46C743.87 76.85 743.87 62.25 743.87 47.65C743.87 39.61 741.64 28.37 748.36 22.37C753.77 17.55 761.64 18.87 768.35 18.87C772.31 18.87 777.26 18.06 781.12 18.92C782.84 19.3 784.31 22.61 785.27 23.98C788.93 29.2 792.54 34.45 796.24 39.65C808.19 56.45 819.87 73.44 831.77 90.28C835.5 95.55 842.39 107.72 846.69 111.51C847.76 112.46 849.88 112.03 851.22 112.03C854.88 112.03 861.98 113.36 865.1 111.55C865.78 105.11 865.19 98.3 865.19 91.82C865.19 78.68 865.19 65.53 865.19 52.39C865.19 44.71 863.6 34.99 866.14 27.66C869.47 18.08 879.9 18.87 888.1 18.87C891.09 18.87 894.95 18.22 897.75 19.31C897.75 35.33 897.75 51.34 897.75 67.36C899.75 68.2 914.71 68.5 916.7 67.66C918.68 66.81 922.81 59.39 924.26 57.33C930.75 48.12 937.14 38.84 943.71 29.68C945.79 26.78 948.14 21.19 951.12 19.22C952.82 18.1 956.92 18.87 958.93 18.87C965.64 18.87 974 17.55 980.5 19.17C980.5 28.66 980.5 38.15 980.5 47.65C976.92 48.36 969.29 46.63 966.46 48.06C964.67 48.97 961.08 55.5 959.74 57.41C954.62 64.76 946.05 74.46 942.51 82.33C946.24 90.13 952.83 97.37 957.81 104.44C959.06 106.23 961.3 111.23 963.41 111.93C968.52 113.64 975.18 111.2 980.5 112.27C980.5 121.76 980.5 131.25 980.5 140.74C973.85 142.4 963.44 141.04 956.37 141.04C954.14 141.04 949.77 141.88 947.86 140.68C945.43 139.16 941.64 131.98 939.81 129.37C933.99 121.08 928.18 112.78 922.33 104.51C920.84 102.4 916.97 95.34 914.95 94.37C912.61 93.25 900.57 93.82 897.75 94.38C897.75 109.79 897.75 125.19 897.75 140.6C892.86 142.5 876.67 141.04 870.57 141.04C861.2 141.04 851.83 141.04 842.46 141.04C839.76 141.04 834.05 142.13 831.74 140.7C829.34 139.23 821.91 126.88 819.79 123.8C810.09 109.7 800.23 95.68 790.28 81.76C787.18 77.42 784.19 73.02 781.11 68.66C779.76 66.75 778.44 63.66 776.2 62.85C776.2 88.91 776.2 114.97 776.2 141.04C753.43 141.04 730.67 141.04 707.9 141.04C707.9 111.09 707.9 81.13 707.9 51.18C672.85 51.18 637.8 51.18 602.75 51.18C602.75 56.58 602.75 61.98 602.75 67.38C604.4 67.62 606.05 67.85 607.7 68.09C607.7 92.41 607.7 116.72 607.7 141.04C489.45 141.04 371.21 141.04 252.96 141.04C252.96 111.09 252.96 81.14 252.96 51.18C185.96 51.18 118.97 51.18 51.97 51.18C51.97 70.36 51.97 89.55 51.97 108.73C74.04 108.73 96.1 108.73 118.17 108.73C118.17 103.86 118.17 98.98 118.17 94.11C101.96 94.11 85.74 94.11 69.53 94.11C69.53 85.44 69.53 76.76 69.53 68.09C75.35 66.6 82.87 67.79 88.9 67.79C102.29 67.79 115.67 67.79 129.06 67.79C133.53 67.79 145.74 66.43 148.9 69.26C152.7 72.66 150.78 82.49 150.78 87.08C150.78 99.25 150.78 111.42 150.78 123.59C150.78 129.08 151.53 135.24 150.6 140.64C148.08 141.73 144.22 141.04 141.47 141.04C134.9 141.04 128.33 141.04 121.76 141.04C98.64 141.04 75.51 141.04 52.39 141.04C43.06 141.04 28.77 144.06 22.27 135.61C18.27 130.41 19.48 122.79 19.48 116.65C19.48 102.65 19.48 88.66 19.48 74.66C19.48 63.22 19.48 51.78 19.48 40.34C19.48 34.26 18.83 27.89 23.29 23.11C27.83 18.24 34.24 18.87 40.34 18.87C52.03 18.87 63.71 18.87 75.39 18.87C125.17 18.87 174.94 18.87 224.72 18.87C237.74 18.87 250.76 18.87 263.78 18.87C270.07 18.87 276.88 18.06 281.57 23.11C287.48 29.45 285.33 40.43 285.33 48.38C285.33 62.74 285.33 77.1 285.33 91.46C285.33 97.79 283.99 105.94 285.69 112.02ZM325.78 18.89C325.78 46.52 325.78 74.15 325.78 101.78C314.93 101.78 304.08 101.78 293.23 101.78C293.23 74.15 293.23 46.52 293.23 18.89C304.08 18.89 314.93 18.89 325.78 18.89ZM576.04 51.19C557.04 51.19 538.04 51.19 519.04 51.19C519.04 56.72 519.04 62.25 519.04 67.79C538.04 67.79 557.04 67.79 576.04 67.79C576.04 62.25 576.04 56.72 576.04 51.19ZM249.01 67.79C249.01 76.57 249.01 85.34 249.01 94.12C228.94 94.12 208.87 94.12 188.79 94.12C188.79 109.75 188.79 125.39 188.79 141.02C177.94 141.02 167.08 141.02 156.23 141.02C156.23 116.61 156.23 92.2 156.23 67.79C187.16 67.79 218.09 67.79 249.01 67.79ZM703.96 67.79C703.96 76.57 703.96 85.34 703.96 94.12C684.01 94.12 664.06 94.12 644.12 94.12C644.12 109.75 644.12 125.39 644.12 141.03C633.26 141.03 622.41 141.03 611.56 141.03C611.56 116.62 611.56 92.21 611.56 67.79C642.36 67.79 673.16 67.79 703.96 67.79ZM575.13 94.12C556.43 94.12 537.73 94.12 519.03 94.12C519.03 100.09 519.03 106.06 519.03 112.02C537.73 112.02 556.43 112.02 575.13 112.02C575.13 106.06 575.13 100.09 575.13 94.12Z" fill="#ebebeb" fill-rule="evenodd" stroke="#ebebeb" stroke-width="0.25" stroke-linejoin="round"/>
</svg>